<?xml version="1.0" encoding="UTF-8" standalone="no"?>
<!DOCTYPE svg PUBLIC "-//W3C//DTD SVG 1.1//EN" "http://www.w3.org/Graphics/SVG/1.1/DTD/svg11.dtd">
<svg xmlns="http://www.w3.org/2000/svg" version="1.1" viewBox="0.00 0.00 26.00 26.00">
<path fill="#1ac53e" d="
  M 5.58 0.00
  L 20.53 0.00
  Q 22.97 0.86 22.98 2.75
  Q 23.08 18.23 22.96 22.94
  Q 22.90 25.29 20.42 26.00
  L 5.96 26.00
  Q 3.01 25.54 3.00 23.00
  Q 2.99 12.87 3.01 2.75
  Q 3.02 0.77 5.58 0.00
  Z
  M 20.99 2.99
  A 1.01 1.01 0.0 0 0 19.98 1.98
  L 6.02 1.98
  A 1.01 1.01 0.0 0 0 5.01 2.99
  L 5.01 7.99
  A 1.01 1.01 0.0 0 0 6.02 9.00
  L 19.98 9.00
  A 1.01 1.01 0.0 0 0 20.99 7.99
  L 20.99 2.99
  Z
  M 9.00 12.00
  A 1.00 1.00 0.0 0 0 8.00 11.00
  L 6.00 11.00
  A 1.00 1.00 0.0 0 0 5.00 12.00
  L 5.00 13.00
  A 1.00 1.00 0.0 0 0 6.00 14.00
  L 8.00 14.00
  A 1.00 1.00 0.0 0 0 9.00 13.00
  L 9.00 12.00
  Z
  M 15.0255 12.1004
  A 1.03 1.03 0.0 0 0 14.0321 11.0351
  L 12.0733 10.9667
  A 1.03 1.03 0.0 0 0 11.0080 11.9601
  L 10.9745 12.9196
  A 1.03 1.03 0.0 0 0 11.9679 13.9849
  L 13.9267 14.0533
  A 1.03 1.03 0.0 0 0 14.9920 13.0599
  L 15.0255 12.1004
  Z
  M 21.0051 12.0766
  A 1.02 1.02 0.0 0 0 20.0195 11.0233
  L 18.0606 10.9583
  A 1.02 1.02 0.0 0 0 17.0073 11.9440
  L 16.9749 12.9234
  A 1.02 1.02 0.0 0 0 17.9605 13.9767
  L 19.9194 14.0417
  A 1.02 1.02 0.0 0 0 20.9727 13.0560
  L 21.0051 12.0766
  Z
  M 8.9927 16.9440
  A 1.02 1.02 0.0 0 0 7.9394 15.9583
  L 5.9805 16.0233
  A 1.02 1.02 0.0 0 0 4.9949 17.0766
  L 5.0273 18.0560
  A 1.02 1.02 0.0 0 0 6.0806 19.0417
  L 8.0395 18.9767
  A 1.02 1.02 0.0 0 0 9.0251 17.9234
  L 8.9927 16.9440
  Z
  M 14.9910 17.0119
  A 1.06 1.06 0.0 0 0 13.9108 15.9724
  L 12.0512 16.0081
  A 1.06 1.06 0.0 0 0 11.0117 17.0883
  L 11.0290 17.9881
  A 1.06 1.06 0.0 0 0 12.1092 19.0276
  L 13.9688 18.9919
  A 1.06 1.06 0.0 0 0 15.0083 17.9117
  L 14.9910 17.0119
  Z
  M 21.01 17.04
  A 1.04 1.04 0.0 0 0 19.97 16.00
  L 18.05 16.00
  A 1.04 1.04 0.0 0 0 17.01 17.04
  L 17.01 17.96
  A 1.04 1.04 0.0 0 0 18.05 19.00
  L 19.97 19.00
  A 1.04 1.04 0.0 0 0 21.01 17.96
  L 21.01 17.04
  Z
  M 8.9885 21.8674
  A 0.96 0.96 0.0 0 0 7.9940 20.9433
  L 5.9354 21.0188
  A 0.96 0.96 0.0 0 0 5.0112 22.0133
  L 5.0515 23.1126
  A 0.96 0.96 0.0 0 0 6.0460 24.0367
  L 8.1046 23.9612
  A 0.96 0.96 0.0 0 0 9.0288 22.9667
  L 8.9885 21.8674
  Z
  M 15.00 22.00
  A 1.00 1.00 0.0 0 0 14.00 21.00
  L 12.00 21.00
  A 1.00 1.00 0.0 0 0 11.00 22.00
  L 11.00 23.00
  A 1.00 1.00 0.0 0 0 12.00 24.00
  L 14.00 24.00
  A 1.00 1.00 0.0 0 0 15.00 23.00
  L 15.00 22.00
  Z
  M 21.00 22.00
  A 1.00 1.00 0.0 0 0 20.00 21.00
  L 18.00 21.00
  A 1.00 1.00 0.0 0 0 17.00 22.00
  L 17.00 23.00
  A 1.00 1.00 0.0 0 0 18.00 24.00
  L 20.00 24.00
  A 1.00 1.00 0.0 0 0 21.00 23.00
  L 21.00 22.00
  Z"
/>
<path fill="#1ac53e" d="
  M 19.9816 6.7806
  A 0.92 0.92 0.0 0 1 19.0892 7.7275
  L 16.9702 7.7904
  A 0.92 0.92 0.0 0 1 16.0233 6.8981
  L 15.9384 4.0394
  A 0.92 0.92 0.0 0 1 16.8308 3.0925
  L 18.9498 3.0296
  A 0.92 0.92 0.0 0 1 19.8967 3.9219
  L 19.9816 6.7806
  Z
  M 18.9768 4.7466
  A 0.76 0.76 0.0 0 0 18.1843 4.0205
  L 17.6848 4.0423
  A 0.76 0.76 0.0 0 0 16.9587 4.8348
  L 17.0232 6.3134
  A 0.76 0.76 0.0 0 0 17.8157 7.0395
  L 18.3152 7.0177
  A 0.76 0.76 0.0 0 0 19.0413 6.2252
  L 18.9768 4.7466
  Z"
/>
</svg>
