<?xml version="1.0" encoding="UTF-8" standalone="no"?>
<!DOCTYPE svg PUBLIC "-//W3C//DTD SVG 1.1//EN" "http://www.w3.org/Graphics/SVG/1.1/DTD/svg11.dtd">
<svg xmlns="http://www.w3.org/2000/svg" version="1.1" viewBox="0.00 0.00 122.00 122.00">
<g stroke-width="2.00" fill="none" stroke-linecap="butt">
<path stroke="#0d6a21" vector-effect="non-scaling-stroke" d="
  M 71.03 1.22
  C 96.19 6.18 114.68 23.87 120.31 49.02
  A 0.22 0.22 0.0 0 0 120.75 48.97
  Q 120.74 48.64 120.87 48.52"
/>
<path stroke="#0d5f1f" vector-effect="non-scaling-stroke" d="
  M 120.96 71.49
  Q 120.80 70.38 119.93 69.81
  Q 119.49 69.52 119.31 70.01
  C 110.88 93.62 80.87 96.88 66.57 76.84
  C 64.42 73.83 64.33 70.83 67.03 68.29"
/>
<path stroke="#0d6a21" vector-effect="non-scaling-stroke" d="
  M 67.03 68.29
  C 70.62 65.83 73.55 67.01 76.10 70.31
  C 81.71 77.60 91.49 80.93 99.83 76.26
  C 118.48 65.83 105.68 37.45 87.26 44.72
  C 78.51 48.18 70.56 58.85 64.23 66.96"
/>
<path stroke="#0d5f1f" vector-effect="non-scaling-stroke" d="
  M 64.23 66.96
  C 53.45 80.26 40.85 92.75 22.40 89.53
  C 13.37 87.96 6.55 82.86 3.44 74.31
  A 0.37 0.37 0.0 0 0 2.74 74.54
  Q 6.79 88.14 14.68 98.22
  C 33.04 121.67 67.01 127.38 92.29 111.58
  Q 113.25 98.48 119.42 73.02
  Q 119.57 72.42 119.91 72.93
  Q 120.17 73.32 120.02 74.01
  C 114.50 98.45 95.72 115.77 71.22 120.77"
/>
<path stroke="#0d5f1f" vector-effect="non-scaling-stroke" d="
  M 50.92 120.85
  C 45.88 119.52 40.82 118.30 36.28 116.15
  Q 6.77 102.22 1.06 69.29"
/>
<path stroke="#0d6a21" vector-effect="non-scaling-stroke" d="
  M 1.08 50.98
  L 2.27 51.76
  Q 2.71 52.04 2.85 51.54
  C 10.83 24.87 41.89 28.98 55.39 47.85
  Q 58.24 51.84 55.04 55.06
  C 49.51 60.63 44.27 51.83 41.00 49.24
  C 24.31 36.02 8.49 50.37 13.83 68.73
  C 17.59 81.63 33.73 80.12 42.03 73.28
  C 56.89 61.04 69.25 34.11 90.15 32.12
  C 103.60 30.84 115.02 39.53 119.29 52.20
  A 0.36 0.36 0.0 0 0 119.98 52.02
  Q 116.56 34.21 105.51 21.61
  C 86.05 -0.60 52.75 -5.04 28.12 11.48
  Q 8.36 24.74 2.54 49.22
  Q 2.46 49.57 2.34 49.23
  C 0.31 43.49 11.06 26.44 14.79 22.04
  Q 28.05 6.40 49.46 1.37"
/>
<path stroke="#1ac840" vector-effect="non-scaling-stroke" d="
  M 67.03 68.29
  Q 66.20 65.87 64.23 66.96"
/>
</g>
<path fill="#000000" d="
  M 71.03 1.22
  C 96.19 6.18 114.68 23.87 120.31 49.02
  A 0.22 0.22 0.0 0 0 120.75 48.97
  Q 120.74 48.64 120.87 48.52
  Q 121.80 60.06 120.96 71.49
  Q 120.80 70.38 119.93 69.81
  Q 119.49 69.52 119.31 70.01
  C 110.88 93.62 80.87 96.88 66.57 76.84
  C 64.42 73.83 64.33 70.83 67.03 68.29
  C 70.62 65.83 73.55 67.01 76.10 70.31
  C 81.71 77.60 91.49 80.93 99.83 76.26
  C 118.48 65.83 105.68 37.45 87.26 44.72
  C 78.51 48.18 70.56 58.85 64.23 66.96
  C 53.45 80.26 40.85 92.75 22.40 89.53
  C 13.37 87.96 6.55 82.86 3.44 74.31
  A 0.37 0.37 0.0 0 0 2.74 74.54
  Q 6.79 88.14 14.68 98.22
  C 33.04 121.67 67.01 127.38 92.29 111.58
  Q 113.25 98.48 119.42 73.02
  Q 119.57 72.42 119.91 72.93
  Q 120.17 73.32 120.02 74.01
  C 114.50 98.45 95.72 115.77 71.22 120.77
  Q 61.21 122.10 50.92 120.85
  C 45.88 119.52 40.82 118.30 36.28 116.15
  Q 6.77 102.22 1.06 69.29
  Q 0.04 60.21 1.08 50.98
  L 2.27 51.76
  Q 2.71 52.04 2.85 51.54
  C 10.83 24.87 41.89 28.98 55.39 47.85
  Q 58.24 51.84 55.04 55.06
  C 49.51 60.63 44.27 51.83 41.00 49.24
  C 24.31 36.02 8.49 50.37 13.83 68.73
  C 17.59 81.63 33.73 80.12 42.03 73.28
  C 56.89 61.04 69.25 34.11 90.15 32.12
  C 103.60 30.84 115.02 39.53 119.29 52.20
  A 0.36 0.36 0.0 0 0 119.98 52.02
  Q 116.56 34.21 105.51 21.61
  C 86.05 -0.60 52.75 -5.04 28.12 11.48
  Q 8.36 24.74 2.54 49.22
  Q 2.46 49.57 2.34 49.23
  C 0.31 43.49 11.06 26.44 14.79 22.04
  Q 28.05 6.40 49.46 1.37
  Q 59.99 -0.19 71.03 1.22
  Z"
/>
<path fill="#1ad342" d="
  M 49.46 1.37
  Q 28.05 6.40 14.79 22.04
  C 11.06 26.44 0.31 43.49 2.34 49.23
  Q 2.46 49.57 2.54 49.22
  Q 8.36 24.74 28.12 11.48
  C 52.75 -5.04 86.05 -0.60 105.51 21.61
  Q 116.56 34.21 119.98 52.02
  A 0.36 0.36 0.0 0 1 119.29 52.20
  C 115.02 39.53 103.60 30.84 90.15 32.12
  C 69.25 34.11 56.89 61.04 42.03 73.28
  C 33.73 80.12 17.59 81.63 13.83 68.73
  C 8.49 50.37 24.31 36.02 41.00 49.24
  C 44.27 51.83 49.51 60.63 55.04 55.06
  Q 58.24 51.84 55.39 47.85
  C 41.89 28.98 10.83 24.87 2.85 51.54
  Q 2.71 52.04 2.27 51.76
  L 1.08 50.98
  C 0.97 41.44 0.08 29.18 2.10 21.12
  C 7.75 -1.37 29.75 0.26 49.46 1.37
  Z"
/>
<path fill="#1ad342" d="
  M 71.03 1.22
  C 81.14 0.81 94.89 -0.30 103.90 3.00
  C 123.41 10.13 121.34 30.00 120.87 48.52
  Q 120.74 48.64 120.75 48.97
  A 0.22 0.22 0.0 0 1 120.31 49.02
  C 114.68 23.87 96.19 6.18 71.03 1.22
  Z"
/>
<path fill="#1ad342" d="
  M 67.03 68.29
  Q 66.20 65.87 64.23 66.96
  C 70.56 58.85 78.51 48.18 87.26 44.72
  C 105.68 37.45 118.48 65.83 99.83 76.26
  C 91.49 80.93 81.71 77.60 76.10 70.31
  C 73.55 67.01 70.62 65.83 67.03 68.29
  Z"
/>
<path fill="#1abd3d" d="
  M 67.03 68.29
  C 64.33 70.83 64.42 73.83 66.57 76.84
  C 80.87 96.88 110.88 93.62 119.31 70.01
  Q 119.49 69.52 119.93 69.81
  Q 120.80 70.38 120.96 71.49
  C 121.01 80.88 121.87 92.80 119.93 100.73
  C 114.14 124.35 90.53 121.39 71.22 120.77
  C 95.72 115.77 114.50 98.45 120.02 74.01
  Q 120.17 73.32 119.91 72.93
  Q 119.57 72.42 119.42 73.02
  Q 113.25 98.48 92.29 111.58
  C 67.01 127.38 33.04 121.67 14.68 98.22
  Q 6.79 88.14 2.74 74.54
  A 0.37 0.37 0.0 0 1 3.44 74.31
  C 6.55 82.86 13.37 87.96 22.40 89.53
  C 40.85 92.75 53.45 80.26 64.23 66.96
  Q 66.20 65.87 67.03 68.29
  Z"
/>
<path fill="#1abd3d" d="
  M 1.06 69.29
  Q 6.77 102.22 36.28 116.15
  C 40.82 118.30 45.88 119.52 50.92 120.85
  C 32.51 121.28 9.45 124.43 2.61 102.66
  C -0.16 93.84 0.96 79.84 1.06 69.29
  Z"
/>
</svg>
